HIERARCHY
ROOT mixamorig:Hips
{
	OFFSET -0.000008 104.274872 1.554316
	CHANNELS 6 Xposition Yposition Zposition Xrotation Yrotation Zrotation
	JOINT mixamorig:Spine
	{
		OFFSET -0.000005 10.181595 0.131519
		CHANNELS 6 Xposition Yposition Zposition Xrotation Yrotation Zrotation
		JOINT mixamorig:Spine1
		{
			OFFSET -0.000000 9.893959 -1.470707
			CHANNELS 6 Xposition Yposition Zposition Xrotation Yrotation Zrotation
			JOINT mixamorig:Spine2
			{
				OFFSET -0.000000 9.220757 -1.370641
				CHANNELS 6 Xposition Yposition Zposition Xrotation Yrotation Zrotation
				JOINT mixamorig:Neck
				{
					OFFSET 0.000001 16.740417 -2.049036
					CHANNELS 6 Xposition Yposition Zposition Xrotation Yrotation Zrotation
					JOINT mixamorig:Head
					{
						OFFSET 0.000000 9.617874 1.685006
						CHANNELS 6 Xposition Yposition Zposition Xrotation Yrotation Zrotation
						JOINT mixamorig:HeadTop_End
						{
							OFFSET 0.000002 22.037354 7.501101
							CHANNELS 6 Xposition Yposition Zposition Xrotation Yrotation Zrotation
							End Site
							{
								OFFSET 0.000168 2310.654297 -282.823242
							}
						}
					}
				}
				JOINT mixamorig:RightShoulder
				{
					OFFSET -4.569970 11.014908 -2.160885
					CHANNELS 6 Xposition Yposition Zposition Xrotation Yrotation Zrotation
					JOINT mixamorig:RightArm
					{
						OFFSET -10.592851 -0.524811 -2.232101
						CHANNELS 6 Xposition Yposition Zposition Xrotation Yrotation Zrotation
						JOINT mixamorig:RightForeArm
						{
							OFFSET -27.841511 0.000031 -0.000004
							CHANNELS 6 Xposition Yposition Zposition Xrotation Yrotation Zrotation
							JOINT mixamorig:RightHand
							{
								OFFSET -28.328831 -0.000015 0.000015
								CHANNELS 6 Xposition Yposition Zposition Xrotation Yrotation Zrotation
								JOINT mixamorig:RightHandThumb1
								{
									OFFSET -2.464806 -1.573990 2.681852
									CHANNELS 6 Xposition Yposition Zposition Xrotation Yrotation Zrotation
									JOINT mixamorig:RightHandThumb2
									{
										OFFSET -3.215179 -1.872803 1.924282
										CHANNELS 6 Xposition Yposition Zposition Xrotation Yrotation Zrotation
										JOINT mixamorig:RightHandThumb3
										{
											OFFSET -2.654831 -1.527969 1.512609
											CHANNELS 6 Xposition Yposition Zposition Xrotation Yrotation Zrotation
											JOINT mixamorig:RightHandThumb4
											{
												OFFSET -2.018814 -1.152008 1.108052
												CHANNELS 6 Xposition Yposition Zposition Xrotation Yrotation Zrotation
												End Site
												{
													OFFSET -188.809540 -114.533607 132.431396
												}
											}
										}
									}
								}
								JOINT mixamorig:RightHandIndex1
								{
									OFFSET -9.108284 -0.517868 2.259835
									CHANNELS 6 Xposition Yposition Zposition Xrotation Yrotation Zrotation
									JOINT mixamorig:RightHandIndex2
									{
										OFFSET -3.699989 0.000000 0.001215
										CHANNELS 6 Xposition Yposition Zposition Xrotation Yrotation Zrotation
										JOINT mixamorig:RightHandIndex3
										{
											OFFSET -2.850006 0.000031 -0.000522
											CHANNELS 6 Xposition Yposition Zposition Xrotation Yrotation Zrotation
											JOINT mixamorig:RightHandIndex4
											{
												OFFSET -2.772186 -0.000015 -0.000020
												CHANNELS 6 Xposition Yposition Zposition Xrotation Yrotation Zrotation
												End Site
												{
													OFFSET -277.218445 0.000000 -0.050231
												}
											}
										}
									}
								}
								JOINT mixamorig:RightHandMiddle1
								{
									OFFSET -9.532516 -0.000031 -0.000023
									CHANNELS 6 Xposition Yposition Zposition Xrotation Yrotation Zrotation
									JOINT mixamorig:RightHandMiddle2
									{
										OFFSET -3.700005 -0.000015 0.003713
										CHANNELS 6 Xposition Yposition Zposition Xrotation Yrotation Zrotation
										JOINT mixamorig:RightHandMiddle3
										{
											OFFSET -2.949974 0.000015 -0.002054
											CHANNELS 6 Xposition Yposition Zposition Xrotation Yrotation Zrotation
											JOINT mixamorig:RightHandMiddle4
											{
												OFFSET -2.946640 0.000000 -0.000156
												CHANNELS 6 Xposition Yposition Zposition Xrotation Yrotation Zrotation
												End Site
												{
													OFFSET -294.664337 0.000000 -0.113670
												}
											}
										}
									}
								}
								JOINT mixamorig:RightHandRing1
								{
									OFFSET -9.103600 -0.043076 -1.865134
									CHANNELS 6 Xposition Yposition Zposition Xrotation Yrotation Zrotation
									JOINT mixamorig:RightHandRing2
									{
										OFFSET -3.379288 0.000000 -0.001055
										CHANNELS 6 Xposition Yposition Zposition Xrotation Yrotation Zrotation
										JOINT mixamorig:RightHandRing3
										{
											OFFSET -2.889687 -0.000015 0.000379
											CHANNELS 6 Xposition Yposition Zposition Xrotation Yrotation Zrotation
											JOINT mixamorig:RightHandRing4
											{
												OFFSET -2.638809 -0.000015 0.000941
												CHANNELS 6 Xposition Yposition Zposition Xrotation Yrotation Zrotation
												End Site
												{
													OFFSET -263.880371 0.000000 0.516020
												}
											}
										}
									}
								}
								JOINT mixamorig:RightHandPinky1
								{
									OFFSET -8.076683 -0.486710 -3.806280
									CHANNELS 6 Xposition Yposition Zposition Xrotation Yrotation Zrotation
									JOINT mixamorig:RightHandPinky2
									{
										OFFSET -3.600014 -0.000015 -0.003747
										CHANNELS 6 Xposition Yposition Zposition Xrotation Yrotation Zrotation
										JOINT mixamorig:RightHandPinky3
										{
											OFFSET -2.099983 0.000000 -0.005739
											CHANNELS 6 Xposition Yposition Zposition Xrotation Yrotation Zrotation
											JOINT mixamorig:RightHandPinky4
											{
												OFFSET -2.115768 -0.000031 -0.003680
												CHANNELS 6 Xposition Yposition Zposition Xrotation Yrotation Zrotation
												End Site
												{
													OFFSET -211.577087 0.000000 -0.350686
												}
											}
										}
									}
								}
							}
						}
					}
				}
				JOINT mixamorig:LeftShoulder
				{
					OFFSET 4.570447 11.014725 -2.160855
					CHANNELS 6 Xposition Yposition Zposition Xrotation Yrotation Zrotation
					JOINT mixamorig:LeftArm
					{
						OFFSET 10.592371 -0.524597 -2.232119
						CHANNELS 6 Xposition Yposition Zposition Xrotation Yrotation Zrotation
						JOINT mixamorig:LeftForeArm
						{
							OFFSET 27.841532 -0.000031 0.000026
							CHANNELS 6 Xposition Yposition Zposition Xrotation Yrotation Zrotation
							JOINT mixamorig:LeftHand
							{
								OFFSET 28.328846 -0.000061 0.000022
								CHANNELS 6 Xposition Yposition Zposition Xrotation Yrotation Zrotation
								JOINT mixamorig:LeftHandThumb1
								{
									OFFSET 2.466141 -1.576172 2.681732
									CHANNELS 6 Xposition Yposition Zposition Xrotation Yrotation Zrotation
									JOINT mixamorig:LeftHandThumb2
									{
										OFFSET 3.217812 -1.872070 1.916482
										CHANNELS 6 Xposition Yposition Zposition Xrotation Yrotation Zrotation
										JOINT mixamorig:LeftHandThumb3
										{
											OFFSET 2.656029 -1.528778 1.514513
											CHANNELS 6 Xposition Yposition Zposition Xrotation Yrotation Zrotation
											JOINT mixamorig:LeftHandThumb4
											{
												OFFSET 2.020889 -1.154053 1.115139
												CHANNELS 6 Xposition Yposition Zposition Xrotation Yrotation Zrotation
												End Site
												{
													OFFSET 190.885437 -115.081749 130.048782
												}
											}
										}
									}
								}
								JOINT mixamorig:LeftHandIndex1
								{
									OFFSET 9.109314 -0.518021 2.259871
									CHANNELS 6 Xposition Yposition Zposition Xrotation Yrotation Zrotation
									JOINT mixamorig:LeftHandIndex2
									{
										OFFSET 3.699989 0.000000 -0.000322
										CHANNELS 6 Xposition Yposition Zposition Xrotation Yrotation Zrotation
										JOINT mixamorig:LeftHandIndex3
										{
											OFFSET 2.850006 0.000000 0.000352
											CHANNELS 6 Xposition Yposition Zposition Xrotation Yrotation Zrotation
											JOINT mixamorig:LeftHandIndex4
											{
												OFFSET 2.774864 -0.000031 -0.000027
												CHANNELS 6 Xposition Yposition Zposition Xrotation Yrotation Zrotation
												End Site
												{
													OFFSET 277.486267 0.000000 -0.009857
												}
											}
										}
									}
								}
								JOINT mixamorig:LeftHandMiddle1
								{
									OFFSET 9.533394 0.000061 0.000044
									CHANNELS 6 Xposition Yposition Zposition Xrotation Yrotation Zrotation
									JOINT mixamorig:LeftHandMiddle2
									{
										OFFSET 3.699989 -0.000015 -0.000231
										CHANNELS 6 Xposition Yposition Zposition Xrotation Yrotation Zrotation
										JOINT mixamorig:LeftHandMiddle3
										{
											OFFSET 2.949997 -0.000015 -0.000059
											CHANNELS 6 Xposition Yposition Zposition Xrotation Yrotation Zrotation
											JOINT mixamorig:LeftHandMiddle4
											{
												OFFSET 2.952896 0.000031 0.000063
												CHANNELS 6 Xposition Yposition Zposition Xrotation Yrotation Zrotation
												End Site
												{
													OFFSET 295.289337 0.000000 0.022810
												}
											}
										}
									}
								}
								JOINT mixamorig:LeftHandRing1
								{
									OFFSET 9.104523 -0.042999 -1.865074
									CHANNELS 6 Xposition Yposition Zposition Xrotation Yrotation Zrotation
									JOINT mixamorig:LeftHandRing2
									{
										OFFSET 3.150009 -0.000031 0.000043
										CHANNELS 6 Xposition Yposition Zposition Xrotation Yrotation Zrotation
										JOINT mixamorig:LeftHandRing3
										{
											OFFSET 2.949982 -0.000015 0.000040
											CHANNELS 6 Xposition Yposition Zposition Xrotation Yrotation Zrotation
											JOINT mixamorig:LeftHandRing4
											{
												OFFSET 2.644348 0.000000 0.000057
												CHANNELS 6 Xposition Yposition Zposition Xrotation Yrotation Zrotation
												End Site
												{
													OFFSET 264.434631 0.000000 0.012105
												}
											}
										}
									}
								}
								JOINT mixamorig:LeftHandPinky1
								{
									OFFSET 8.077789 -0.486847 -3.806259
									CHANNELS 6 Xposition Yposition Zposition Xrotation Yrotation Zrotation
									JOINT mixamorig:LeftHandPinky2
									{
										OFFSET 3.599953 0.000031 0.014727
										CHANNELS 6 Xposition Yposition Zposition Xrotation Yrotation Zrotation
										JOINT mixamorig:LeftHandPinky3
										{
											OFFSET 2.100021 0.000015 0.007705
											CHANNELS 6 Xposition Yposition Zposition Xrotation Yrotation Zrotation
											JOINT mixamorig:LeftHandPinky4
											{
												OFFSET 2.125504 0.000031 0.007517
												CHANNELS 6 Xposition Yposition Zposition Xrotation Yrotation Zrotation
												End Site
												{
													OFFSET 212.550781 0.000000 0.625752
												}
											}
										}
									}
								}
							}
						}
					}
				}
			}
		}
	}
	JOINT mixamorig:RightUpLeg
	{
		OFFSET -8.207787 -6.751648 -1.599560
		CHANNELS 6 Xposition Yposition Zposition Xrotation Yrotation Zrotation
		JOINT mixamorig:RightLeg
		{
			OFFSET -0.000002 -44.370117 0.345942
			CHANNELS 6 Xposition Yposition Zposition Xrotation Yrotation Zrotation
			JOINT mixamorig:RightFoot
			{
				OFFSET 0.000003 -44.423679 -3.043532
				CHANNELS 6 Xposition Yposition Zposition Xrotation Yrotation Zrotation
				JOINT mixamorig:RightToeBase
				{
					OFFSET -0.000002 -8.728671 10.710558
					CHANNELS 6 Xposition Yposition Zposition Xrotation Yrotation Zrotation
					JOINT mixamorig:RightToe_End
					{
						OFFSET -0.000001 -0.000679 9.278119
						CHANNELS 6 Xposition Yposition Zposition Xrotation Yrotation Zrotation
						End Site
						{
							OFFSET 0.000000 -0.067690 927.812134
						}
					}
				}
			}
		}
	}
	JOINT mixamorig:LeftUpLeg
	{
		OFFSET 8.207793 -6.751686 -1.599556
		CHANNELS 6 Xposition Yposition Zposition Xrotation Yrotation Zrotation
		JOINT mixamorig:LeftLeg
		{
			OFFSET -0.000004 -44.370014 0.346954
			CHANNELS 6 Xposition Yposition Zposition Xrotation Yrotation Zrotation
			JOINT mixamorig:LeftFoot
			{
				OFFSET -0.000001 -44.423672 -3.044401
				CHANNELS 6 Xposition Yposition Zposition Xrotation Yrotation Zrotation
				JOINT mixamorig:LeftToeBase
				{
					OFFSET -0.000002 -8.728669 10.710558
					CHANNELS 6 Xposition Yposition Zposition Xrotation Yrotation Zrotation
					JOINT mixamorig:LeftToe_End
					{
						OFFSET -0.000003 -0.000679 9.278133
						CHANNELS 6 Xposition Yposition Zposition Xrotation Yrotation Zrotation
						End Site
						{
							OFFSET 0.000000 -0.068021 927.813477
						}
					}
				}
			}
		}
	}
}
MOTION
Frames: 3
Frame Time: 0.033333
0.000006 104.270477 1.554256 0.000010 0.000003 -0.000113 -0.000005 10.181587 0.131522 0.000001 -0.000003 0.000084 -0.000000 9.893967 -1.470711 0.000001 0.000000 -0.000000 -0.000000 9.220802 -1.370642 0.000000 -0.000000 -0.000000 0.000001 16.740433 -2.049030 0.000000 -0.000000 -0.000000 0.000000 9.617859 1.685014 0.000000 0.000000 0.000000 0.000002 22.037384 7.501101 0.000000 -0.000000 0.000000 -4.569968 11.014880 -2.160881 0.000008 0.000001 -0.000038 -10.592758 -0.524849 -2.231730 89.002576 67.151852 -66.235821 -27.841478 0.000007 0.000599 41.969839 108.747936 -56.314920 -28.328829 0.000021 0.000028 -0.000325 -0.000045 0.000007 -2.464812 -1.574151 2.682054 115.186250 -179.900639 162.680749 -3.215115 -1.873020 1.924481 105.944738 193.293370 157.176163 -2.654742 -1.528272 1.512848 277.543835 -16.914029 332.422793 -2.018835 -1.152014 1.108082 -0.000003 -0.000004 0.000005 -9.108296 -0.517804 2.260391 222.895260 15.856878 39.087533 -3.699951 0.000121 0.001803 216.233708 18.238019 52.247587 -2.849995 0.000116 0.000064 212.980407 15.088663 48.205508 -2.772171 -0.000000 -0.000026 -0.000001 -0.000000 0.000000 -9.532505 0.000024 0.000537 214.738771 11.488691 35.867038 -3.699962 0.000113 0.004301 211.966875 13.558405 44.950790 -2.949941 0.000105 -0.001472 207.984711 12.605851 47.800724 -2.946641 -0.000000 -0.000156 -0.000001 -0.000001 -0.000002 -9.103584 -0.042946 -1.864528 212.616863 14.137657 -314.117012 -3.379238 0.000063 -0.000460 214.647478 12.766453 39.486577 -2.889696 0.000087 0.000980 214.147276 10.527069 33.474009 -2.638810 -0.000014 0.000946 -0.000001 -0.000001 0.000001 -8.076519 -0.486534 -3.805676 195.809666 17.887710 -262.777403 -3.599960 0.000083 -0.003158 202.553549 8.462391 39.858149 -2.099977 0.000084 -0.005160 203.345865 3.864849 17.756012 -2.115752 -0.000040 -0.003678 0.000003 0.000001 -0.000004 4.570446 11.014691 -2.160851 -0.000018 0.000010 -0.000021 10.592553 -0.524528 -2.232401 82.260626 -67.099177 60.150744 27.841757 -0.000054 -0.000104 42.276702 -106.838372 55.036558 28.328825 -0.000014 0.000029 0.000020 -0.000089 -0.000000 2.466185 -1.576150 2.681915 -68.711082 16.774984 20.979452 3.217836 -1.871976 1.916553 -97.109826 34.276543 40.450037 2.656044 -1.528761 1.514605 76.558621 144.598493 -134.393439 2.020894 -1.154078 1.115145 -0.000000 0.000003 0.000007 9.109121 -0.517709 2.260008 -164.372901 -8.713568 -58.054477 3.699739 0.000273 -0.000206 193.265434 -11.034014 280.560648 2.849756 0.000319 0.000467 192.040945 -9.785680 281.869804 2.774879 -0.000031 -0.000033 0.000002 0.000001 0.000003 9.533281 0.000421 0.000193 -162.113010 -6.355503 -38.838515 3.699811 0.000367 -0.000098 -162.465830 -8.364957 -50.732852 2.949829 0.000337 0.000078 -160.827186 -9.205947 -50.979610 2.952877 -0.000048 0.000062 0.000000 -0.000000 0.000001 9.104436 -0.042664 -1.864929 -158.345013 -5.976690 -30.539623 3.149854 0.000433 0.000200 -157.863499 -8.429806 -41.291075 2.949802 0.000417 0.000211 -153.843427 -9.457246 -39.202035 2.644325 0.000002 0.000088 -0.000001 -0.000001 -0.000000 8.077599 -0.486532 -3.806116 196.523858 -8.272927 305.822676 3.599762 0.000449 0.014860 193.253687 -5.765094 311.485641 2.099898 0.000460 0.007827 194.739403 -2.747609 336.610574 2.125502 -0.000015 0.007517 -0.000001 0.000001 0.000000 -8.207786 -6.751667 -1.599560 -0.077001 -0.000003 0.000080 -0.000002 -44.370110 0.345938 0.153719 -0.000000 -0.000000 0.000000 -44.423679 -3.043532 -0.076700 0.000000 -0.000002 -0.000006 -8.728667 10.710559 -0.000009 -0.000000 -0.000000 -0.000001 -0.000679 9.278123 0.000000 -0.000000 -0.000000 8.207792 -6.751710 -1.599556 -0.074518 -0.000003 0.000081 -0.000002 -44.370014 0.346960 0.148822 0.000002 0.000000 -0.000001 -44.423664 -3.044403 -0.074314 0.000000 -0.000002 -0.000004 -8.728671 10.710558 0.000007 -0.000000 -0.000000 0.000000 -0.000680 9.278137 -0.000000 0.000000 -0.000001 
0.000006 104.270477 1.554256 0.000010 0.000003 -0.000113 -0.000005 10.181587 0.131522 0.000001 -0.000003 0.000084 -0.000000 9.893967 -1.470711 0.000001 0.000000 -0.000000 -0.000000 9.220802 -1.370642 0.000000 -0.000000 -0.000000 0.000001 16.740433 -2.049030 0.000000 -0.000000 -0.000000 0.000000 9.617859 1.685014 0.000000 0.000000 0.000000 0.000002 22.037384 7.501101 0.000000 -0.000000 0.000000 -4.569968 11.014880 -2.160881 0.000008 0.000001 -0.000038 -10.592755 -0.524855 -2.231728 89.655057 67.932816 -67.613538 -27.841457 0.000003 0.000611 39.526660 109.779882 -54.137753 -28.328842 0.000006 0.000036 -0.000318 -0.000044 0.000007 -2.464845 -1.574146 2.682041 115.635471 -187.348892 163.741518 -3.215118 -1.873032 1.924510 100.544920 192.081134 155.406188 -2.654719 -1.528282 1.512899 264.392962 -22.816768 324.147555 -2.018822 -1.151996 1.108060 -0.000003 -0.000003 0.000000 -9.108276 -0.517778 2.260417 217.947457 16.439509 45.626924 -3.699963 0.000135 0.001803 212.595990 16.375139 52.382353 -2.849974 0.000140 0.000054 209.150392 12.998162 47.317211 -2.772161 -0.000001 -0.000029 -0.000000 -0.000001 -0.000001 -9.532471 0.000061 0.000553 211.010935 12.338723 42.778421 -3.699954 0.000109 0.004306 208.289610 11.874847 44.700228 -2.949945 0.000119 -0.001461 205.358804 11.004371 46.345006 -2.946622 0.000016 -0.000170 -0.000004 0.000001 -0.000001 -9.103565 -0.042927 -1.864530 209.383875 14.142186 -309.415766 -3.379256 0.000074 -0.000464 211.534223 11.583086 39.547280 -2.889672 0.000107 0.000958 210.785853 9.291835 32.982454 -2.638814 -0.000016 0.000958 0.000000 0.000000 0.000002 -8.076530 -0.486549 -3.805688 195.381045 18.515999 -259.191226 -3.599941 0.000103 -0.003165 200.885480 9.729890 48.840955 -2.099972 0.000106 -0.005166 201.680979 4.711894 23.462613 -2.115771 -0.000026 -0.003681 -0.000004 0.000001 -0.000002 4.570446 11.014691 -2.160851 -0.000018 0.000010 -0.000021 10.592550 -0.524527 -2.232400 82.990500 -67.417758 61.093064 27.841755 -0.000081 -0.000104 41.445284 -106.651512 53.864129 28.328831 -0.000013 0.000035 0.000018 -0.000089 0.000000 2.466188 -1.576136 2.681899 -72.689660 21.470305 23.438390 3.217846 -1.871990 1.916516 -101.295756 35.105256 43.359181 2.656050 -1.528786 1.514617 70.987317 144.373165 -130.624540 2.020906 -1.154067 1.115142 -0.000001 0.000001 0.000002 9.109091 -0.517713 2.259995 -163.798496 -11.022727 -68.252667 3.699750 0.000266 -0.000198 194.482178 -11.441557 283.478559 2.849751 0.000315 0.000473 193.633718 -9.774233 288.851897 2.774860 -0.000011 -0.000028 -0.000003 0.000000 -0.000001 9.533186 0.000389 0.000162 -164.877761 -9.193808 -62.394454 3.699767 0.000314 -0.000112 -165.155873 -9.515556 -65.145975 2.949798 0.000315 0.000068 -164.569023 -9.722376 -64.241693 2.952874 -0.000019 0.000069 -0.000004 0.000000 -0.000001 9.104371 -0.042690 -1.864951 -161.990859 -8.373726 -49.594437 3.149773 0.000430 0.000200 -161.172630 -9.681167 -54.118235 2.949765 0.000428 0.000200 -159.270190 -9.818773 -50.315237 2.644328 0.000026 0.000062 -0.000000 -0.000001 -0.000001 8.077548 -0.486570 -3.806127 195.246695 -11.207136 286.967557 3.599673 0.000366 0.014853 191.948164 -8.828462 286.537473 2.099795 0.000430 0.007821 192.293499 -5.354984 311.354774 2.125503 -0.000005 0.007512 0.000002 -0.000002 0.000000 -8.207786 -6.751667 -1.599560 -0.077001 -0.000003 0.000080 -0.000002 -44.370110 0.345938 0.153719 -0.000000 -0.000000 0.000000 -44.423679 -3.043532 -0.076700 0.000000 -0.000002 -0.000006 -8.728667 10.710559 -0.000009 -0.000000 -0.000000 -0.000001 -0.000679 9.278123 0.000000 -0.000000 -0.000000 8.207792 -6.751710 -1.599556 -0.074518 -0.000003 0.000081 -0.000002 -44.370014 0.346960 0.148822 0.000002 0.000000 -0.000001 -44.423664 -3.044403 -0.074314 0.000000 -0.000002 -0.000004 -8.728671 10.710558 0.000007 -0.000000 -0.000000 0.000000 -0.000680 9.278137 -0.000000 0.000000 -0.000001 
0.000006 104.270477 1.554256 0.000010 0.000003 -0.000113 -0.000005 10.181587 0.131522 0.000001 -0.000003 0.000084 -0.000000 9.893967 -1.470711 0.000001 0.000000 -0.000000 -0.000000 9.220802 -1.370642 0.000000 -0.000000 -0.000000 0.000001 16.740433 -2.049030 0.000000 -0.000000 -0.000000 0.000000 9.617859 1.685014 0.000000 0.000000 0.000000 0.000002 22.037384 7.501101 0.000000 -0.000000 0.000000 -4.569968 11.014880 -2.160881 0.000008 0.000001 -0.000038 -10.592751 -0.524845 -2.231728 90.249195 67.363704 -67.593929 -27.841465 0.000016 0.000613 36.850749 111.573305 -52.206588 -28.328838 0.000021 0.000022 -0.000327 -0.000044 0.000008 -2.464861 -1.574139 2.682075 113.349189 -190.144735 163.709799 -3.215152 -1.873021 1.924527 97.935740 187.347294 155.754623 -2.654755 -1.528263 1.512890 264.618085 -17.927703 326.220954 -2.018822 -1.151996 1.108062 -0.000003 -0.000003 0.000000 -9.108238 -0.517754 2.260447 212.863706 18.113334 56.818909 -3.699920 0.000140 0.001815 209.028022 17.723410 62.102430 -2.849936 0.000161 0.000063 206.046645 13.798905 55.231802 -2.772151 -0.000018 -0.000021 -0.000001 0.000000 -0.000002 -9.532438 0.000075 0.000563 207.154460 13.960167 53.934865 -3.699922 0.000156 0.004307 204.964415 12.922503 54.058758 -2.949922 0.000155 -0.001463 203.323981 11.628166 52.507066 -2.946617 0.000003 -0.000149 -0.000001 0.000006 -0.000000 -9.103518 -0.042922 -1.864539 205.533998 15.584689 -297.780839 -3.379200 0.000115 -0.000458 207.536200 13.191024 50.547143 -2.889678 0.000150 0.000963 209.026574 10.206751 38.156227 -2.638807 0.000014 0.000931 -0.000000 -0.000001 0.000002 -8.076514 -0.486549 -3.805687 193.997330 18.248597 -254.662073 -3.599883 0.000109 -0.003155 198.534024 11.401671 62.402835 -2.099940 0.000127 -0.005159 201.792420 6.212016 30.792931 -2.115765 -0.000060 -0.003671 -0.000002 -0.000000 -0.000005 4.570446 11.014691 -2.160851 -0.000018 0.000010 -0.000021 10.592550 -0.524525 -2.232404 83.635400 -67.277787 61.529623 27.841749 -0.000068 -0.000088 41.212767 -107.233444 54.071367 28.328833 -0.000013 0.000037 0.000020 -0.000089 -0.000001 2.466180 -1.576135 2.681881 -73.471764 24.474429 24.352549 3.217850 -1.871964 1.916544 -102.406461 36.315996 44.577172 2.656080 -1.528742 1.514603 72.768303 145.080690 -132.151087 2.020875 -1.154086 1.115149 -0.000001 -0.000003 0.000006 9.109082 -0.517751 2.260000 -164.457773 -11.657798 -73.585972 3.699755 0.000282 -0.000193 194.529238 -12.343140 279.378288 2.849749 0.000310 0.000470 194.149302 -10.760232 285.615726 2.774881 -0.000044 -0.000027 -0.000003 -0.000001 -0.000001 9.533167 0.000350 0.000168 -165.459652 -9.826826 -67.936518 3.699772 0.000339 -0.000107 -164.566865 -10.226628 -66.876855 2.949772 0.000312 0.000075 -163.679063 -10.384182 -64.727244 2.952877 -0.000031 0.000061 -0.000000 -0.000002 -0.000001 9.104339 -0.042714 -1.864954 -163.083853 -9.117138 -56.401756 3.149794 0.000436 0.000198 -159.065707 -10.169165 -51.435662 2.949795 0.000445 0.000209 -156.650798 -10.398402 -47.537785 2.644326 0.000012 0.000050 -0.000000 -0.000000 -0.000000 8.077543 -0.486601 -3.806131 193.664522 -11.717415 278.573801 3.599678 0.000377 0.014851 192.047147 -8.947004 286.276505 2.099789 0.000441 0.007829 192.691562 -5.938912 308.473746 2.125497 -0.000001 0.007512 -0.000002 -0.000001 0.000003 -8.207786 -6.751667 -1.599560 -0.077001 -0.000003 0.000080 -0.000002 -44.370110 0.345938 0.153719 -0.000000 -0.000000 0.000000 -44.423679 -3.043532 -0.076700 0.000000 -0.000002 -0.000006 -8.728667 10.710559 -0.000009 -0.000000 -0.000000 -0.000001 -0.000679 9.278123 0.000000 -0.000000 -0.000000 8.207792 -6.751710 -1.599556 -0.074518 -0.000003 0.000081 -0.000002 -44.370014 0.346960 0.148822 0.000002 0.000000 -0.000001 -44.423664 -3.044403 -0.074314 0.000000 -0.000002 -0.000004 -8.728671 10.710558 0.000007 -0.000000 -0.000000 0.000000 -0.000680 9.278137 -0.000000 0.000000 -0.000001 
